<svg xmlns="http://www.w3.org/2000/svg" viewBox="0 0 100 100" fill="none">
  <circle cx="50" cy="50" r="45" fill="#b8860b" opacity="0.15"/>
  <ellipse cx="50" cy="55" rx="22" ry="28" fill="#b8860b"/>
  <ellipse cx="50" cy="55" rx="18" ry="24" fill="#1e3a5f"/>
  <ellipse cx="50" cy="45" rx="14" ry="6" fill="#b8860b"/>
  <ellipse cx="50" cy="57" rx="14" ry="6" fill="#b8860b"/>
  <ellipse cx="50" cy="69" rx="12" ry="5" fill="#b8860b"/>
  <circle cx="42" cy="32" r="8" fill="#1e3a5f"/>
  <circle cx="58" cy="32" r="8" fill="#1e3a5f"/>
  <circle cx="42" cy="32" r="3" fill="#f8f6f3"/>
  <circle cx="58" cy="32" r="3" fill="#f8f6f3"/>
  <path d="M35 25 Q30 10 38 8" stroke="#1e3a5f" stroke-width="2" fill="none"/>
  <path d="M65 25 Q70 10 62 8" stroke="#1e3a5f" stroke-width="2" fill="none"/>
  <ellipse cx="25" cy="45" rx="12" ry="18" fill="#d4a84b" opacity="0.4" transform="rotate(-20 25 45)"/>
  <ellipse cx="75" cy="45" rx="12" ry="18" fill="#d4a84b" opacity="0.4" transform="rotate(20 75 45)"/>
</svg>
